<?xml version="1.0" encoding="utf-8"?>
<!-- Generator: Adobe Illustrator 17.0.0, SVG Export Plug-In . SVG Version: 6.00 Build 0)  -->
<!DOCTYPE svg PUBLIC "-//W3C//DTD SVG 1.1//EN" "http://www.w3.org/Graphics/SVG/1.1/DTD/svg11.dtd">
<svg version="1.1" id="Layer_1" xmlns="http://www.w3.org/2000/svg" xmlns:xlink="http://www.w3.org/1999/xlink" x="0px" y="0px"
	 width="700px" height="680px" viewBox="0 0 700 680" enable-background="new 0 0 700 680" xml:space="preserve">
<g>
	<polygon fill="#FFFFFF" points="349.5,576.077 11.5,468.077 11.5,269.077 349.5,377.077 	"/>
	<path d="M350,578.577c-0.255,0-0.512-0.039-0.761-0.118l-338-108c-1.036-0.331-1.739-1.294-1.739-2.382v-199
		c0-0.798,0.381-1.548,1.025-2.019c0.646-0.471,1.477-0.605,2.235-0.362l338,108c1.036,0.331,1.739,1.294,1.739,2.382v199
		c0,0.798-0.381,1.548-1.025,2.019C351.041,578.412,350.523,578.577,350,578.577z M14.5,466.25l333,106.402v-193.75L14.5,272.5
		V466.25z"/>
</g>
<g>
	<polygon fill="#FFFFFF" points="349.5,576.077 687.5,468.077 687.5,269.077 349.5,377.077 	"/>
	<path d="M350,578.577c-0.523,0-1.041-0.164-1.475-0.481c-0.645-0.471-1.025-1.221-1.025-2.019v-199
		c0-1.088,0.703-2.051,1.739-2.382l338-108c0.761-0.243,1.591-0.108,2.235,0.362c0.645,0.471,1.025,1.221,1.025,2.019v199
		c0,1.088-0.703,2.051-1.739,2.382l-338,108C350.512,578.538,350.255,578.577,350,578.577z M352.5,378.903v193.75l333-106.402V272.5
		L352.5,378.903z"/>
</g>
<g>
	<polygon fill="#FFFFFF" points="12.5,269.077 350.5,377.077 688,269.077 350.5,149.698 	"/>
	<path d="M350.5,379.577c-0.257,0-0.513-0.039-0.761-0.118l-338-108c-1.023-0.327-1.723-1.27-1.739-2.344
		c-0.017-1.073,0.655-2.037,1.667-2.395l338-119.379c0.539-0.19,1.127-0.19,1.666,0l337.5,119.379
		c1.012,0.358,1.682,1.322,1.666,2.395c-0.017,1.073-0.716,2.017-1.738,2.343l-337.5,108
		C351.014,379.537,350.757,379.577,350.5,379.577z M20.342,268.958l330.157,105.494l329.668-105.494L350.499,152.349L20.342,268.958
		z"/>
</g>
<g>
	<circle cx="350.5" cy="149.698" r="143.652"/>
</g>
<g>
	<path d="M15.388,529.199c4.225-1.44,9.457-6.769,15.698-15.938l3.552,1.2c-4.321,6.145-8.689,11.041-13.009,14.593
		c9.217-0.384,17.954-1.008,26.21-1.775c-1.824-2.593-3.697-5.041-5.617-7.249l3.12-1.488c4.128,4.801,7.969,10.129,11.521,15.938
		l-3.36,1.632c-1.2-2.016-2.4-3.888-3.552-5.712c-10.129,0.912-21.41,1.584-33.891,2.064L15.388,529.199z M51.536,557.425h-3.504
		v-2.4H22.973v2.4h-3.504v-20.018h32.067V557.425z M48.031,551.712v-10.993H22.973v10.993H48.031z"/>
	<path d="M71.261,532.367l-2.256,2.257c-1.824-2.16-4.32-4.465-7.488-6.865l2.256-2.16
		C66.748,527.806,69.244,530.063,71.261,532.367z M71.981,539.711c-2.16,6.049-4.561,11.713-7.249,17.09l-3.121-1.345
		c2.88-5.521,5.376-11.185,7.489-16.945L71.981,539.711z M71.549,520.846l-2.256,2.304c-1.728-2.16-4.08-4.416-7.104-6.769
		l2.256-2.16C67.228,516.429,69.629,518.638,71.549,520.846z M74.909,529.918c-0.192,1.969-0.528,3.889-1.056,5.761l-2.112-0.769
		c0.576-1.728,1.008-3.552,1.248-5.472L74.909,529.918z M82.973,528.287l-2.112,0.528l-0.384-1.536
		c-2.4,0.479-5.041,0.912-8.017,1.296l-0.432-2.064c1.008-0.336,2.544-1.968,4.561-4.944l-3.984,0.432l-0.48-1.872
		c1.536-1.536,2.88-3.792,3.936-6.672l2.353,0.672c-1.056,2.4-2.256,4.32-3.601,5.761c1.008-0.097,2.064-0.24,3.121-0.337
		c0.528-0.863,1.104-1.775,1.68-2.735l2.305,0.815c-2.592,4.081-4.608,6.913-6.097,8.449c1.44-0.288,2.784-0.528,4.032-0.769
		c-0.288-0.864-0.576-1.68-0.912-2.496l2.016-0.624C81.725,523.918,82.398,525.982,82.973,528.287z M78.413,547.825h24.386
		c0,4.128-0.384,6.72-1.104,7.776c-0.768,1.152-2.4,1.776-4.992,1.824c-2.112,0-4.176-0.048-6.193-0.145l-0.72-2.736
		c2.304,0.097,4.417,0.145,6.384,0.145c1.536,0,2.497-0.336,2.928-0.96c0.288-0.528,0.432-1.584,0.48-3.169H74.957l1.152-8.256
		h22.034v-3.072H75.677v-2.545h25.538v8.209h-22.37L78.413,547.825z M78.846,535.151l-2.161,0.288
		c-0.048-2.4-0.192-4.272-0.384-5.616l1.872-0.192C78.509,530.975,78.749,532.847,78.846,535.151z M82.926,534l-1.968,0.72
		c-0.336-1.681-0.72-3.312-1.2-4.896l1.776-0.528C82.11,531.023,82.59,532.559,82.926,534z M86.67,516.286
		c-0.288-0.96-0.624-1.872-0.96-2.641l2.928-0.479c0.336,0.96,0.624,1.968,0.912,3.12h4.176v2.304H82.638v-2.304H86.67z
		 M92.719,527.855v6.96h-9.025v-6.96H92.719z M92.431,520.414v2.017h-8.449v-2.017H92.431z M92.383,524.11v1.969h-8.401v-1.969
		H92.383z M90.414,529.678h-4.417v3.169h4.417V529.678z M104.911,528.094l-2.16,0.48c-0.096-0.48-0.24-0.912-0.336-1.344
		c-2.4,0.384-5.136,0.768-8.208,1.151l-0.48-2.063c1.056-0.337,2.641-1.921,4.752-4.753c-1.2,0.096-2.496,0.24-3.888,0.384
		l-0.48-1.872c1.536-1.536,2.88-3.696,3.936-6.528l2.353,0.672c-1.056,2.305-2.256,4.177-3.601,5.616
		c1.056-0.096,2.112-0.239,3.168-0.336c0.576-0.863,1.152-1.728,1.776-2.64l2.304,0.815c-2.688,3.984-4.849,6.769-6.481,8.305
		c1.536-0.239,2.977-0.479,4.225-0.72c-0.336-1.008-0.672-1.968-1.056-2.88l2.016-0.624
		C103.519,523.583,104.24,525.694,104.911,528.094z M96.895,529.823c-0.192,1.968-0.48,3.889-0.912,5.713l-2.112-0.769
		c0.528-1.68,0.912-3.504,1.104-5.425L96.895,529.823z M100.927,535.007l-2.208,0.288c-0.096-2.4-0.24-4.272-0.48-5.617l1.872-0.191
		C100.495,530.831,100.783,532.703,100.927,535.007z M105.056,533.759l-1.92,0.672c-0.432-1.681-0.912-3.312-1.488-4.944
		l1.776-0.528C104.143,530.687,104.672,532.319,105.056,533.759z"/>
	<path d="M27.005,572.75c-2.592,5.232-6.769,9.889-12.625,13.921l-1.008-3.36c4.849-3.552,8.401-7.536,10.609-12.001L27.005,572.75z
		 M28.061,584.894c-1.248,2.545-2.736,4.944-4.561,7.153v23.042h-3.36v-19.49c-1.632,1.536-3.408,3.024-5.328,4.368l-1.008-3.312
		c5.088-3.841,8.881-8.257,11.281-13.153L28.061,584.894z M56.048,593.295l-2.592,1.824c-0.624-1.152-1.344-2.353-2.112-3.601
		c-3.888,0.576-8.544,1.104-13.921,1.536l2.064,0.864c-0.48,1.008-0.912,1.968-1.344,2.832h13.921v2.832
		c-1.296,3.408-3.6,6.337-6.865,8.833c3.745,1.729,7.969,3.168,12.673,4.225l-1.92,2.88c-5.328-1.296-9.937-2.977-13.825-5.088
		c-3.744,2.111-8.353,3.792-13.825,5.088l-1.584-2.832c4.8-1.057,8.881-2.448,12.241-4.129c-2.16-1.439-4.081-2.976-5.761-4.608
		c-1.44,1.536-2.928,2.881-4.464,4.033l-2.496-2.16c1.776-1.249,3.36-2.688,4.8-4.225c-0.96-1.152-1.824-2.353-2.592-3.505
		l2.641-1.536c0.576,0.912,1.2,1.776,1.872,2.641c1.344-1.92,2.496-3.937,3.456-6.049c-2.16,0.192-4.368,0.336-6.625,0.48
		l-0.96-2.736c3.648-1.248,7.825-4.032,12.481-8.257c-2.832,0.288-6.433,0.624-10.849,0.912l-0.48-2.832
		c1.248-0.192,2.448-0.912,3.648-2.16c1.728-1.92,3.504-4.417,5.376-7.489l3.12,1.2c-2.352,3.457-4.608,6.241-6.72,8.257
		c3.264-0.288,6.289-0.624,9.073-1.008c1.248-1.248,2.496-2.641,3.84-4.08l3.024,1.392c-5.76,6.24-10.897,10.849-15.457,13.729
		c5.232-0.48,9.792-1.057,13.729-1.729c-0.96-1.392-2.016-2.784-3.072-4.225l2.496-1.584
		C52.111,586.958,54.415,590.367,56.048,593.295z M48.559,599.776H36.366c-0.384,0.624-0.816,1.248-1.248,1.824
		c1.968,1.92,4.272,3.648,6.913,5.185C45.007,604.768,47.167,602.416,48.559,599.776z"/>
	<path d="M75.917,582.783v3.023H62.14v-3.023H75.917z M79.182,610.913c-3.552,1.92-8.689,3.504-15.41,4.656l-1.584-2.688
		c6.721-1.104,11.809-2.497,15.265-4.225L79.182,610.913z M74.909,574.141v2.977H63.1v-2.977H74.909z M98.815,589.359v19.01H67.805
		v-19.01H98.815z M95.407,595.023v-2.976H71.213v2.976H95.407z M95.407,600.16v-2.784H71.213v2.784H95.407z M95.407,602.512H71.213
		v3.072h24.194V602.512z M77.837,582.35l-1.92-2.544c3.504-2.353,5.905-5.232,7.153-8.641l3.168,0.384
		c-0.336,0.864-0.672,1.729-1.056,2.544h17.186v2.448c-1.249,2.496-2.641,4.608-4.177,6.337l-2.4-1.872
		c1.104-1.152,2.112-2.496,3.024-4.032h-15.41C81.918,578.99,80.045,580.766,77.837,582.35z M91.998,578.414
		c-0.192,0.769-0.432,1.488-0.72,2.16c3.457,3.505,7.921,5.617,13.297,6.289l-1.392,2.88c-5.232-0.815-9.649-3.072-13.249-6.769
		c-2.304,3.168-6,5.232-11.089,6.24l-1.632-2.496c6.625-1.2,10.561-4.176,11.809-8.881L91.998,578.414z M104.335,612.881
		l-1.152,2.735c-5.088-1.92-10.465-3.36-16.033-4.416l1.248-2.4C93.919,609.76,99.247,611.105,104.335,612.881z"/>
	<path d="M129.246,580.19v-8.688h3.552v8.688h18.722v3.312H135.87c3.216,7.633,8.977,14.449,17.233,20.449l-2.352,2.977
		c-8.449-6.912-14.305-14.737-17.57-23.426h-0.384v18.722h10.273v3.312h-10.273v9.841h-3.552v-9.841h-9.889v-3.312h9.889v-18.722
		h-0.336c-3.553,9.745-9.601,17.762-18.146,24.05l-1.968-3.216c8.064-5.377,13.825-12.337,17.377-20.834h-15.697v-3.312H129.246z"/>
	<path d="M38.958,629.261v5.809h16.129v1.776c-0.672,2.88-1.632,5.712-2.928,8.496l-3.312-0.912c0.96-1.775,1.776-3.792,2.448-6
		H38.958v8.977h12.289v3.072c-2.112,5.185-5.425,9.648-9.937,13.394c4.417,2.592,9.697,4.8,15.938,6.576l-1.92,2.929
		c-6.72-2.017-12.289-4.465-16.801-7.393c-4.512,3.12-10.033,5.664-16.465,7.584l-1.872-3.024
		c6.096-1.728,11.233-3.888,15.457-6.576c-4.896-3.744-8.305-8.209-10.273-13.297h-2.976c-0.288,8.641-2.4,16.081-6.385,22.321
		l-2.736-2.399c3.696-5.617,5.616-12.722,5.808-21.362V635.07h16.322v-5.809H38.958z M35.406,647.407v-8.977H22.397v8.977H35.406z
		 M38.43,662c4.176-3.265,7.201-7.009,9.121-11.329H28.685C30.702,654.992,33.918,658.784,38.43,662z"/>
	<path d="M63.676,634.11v-3.168h38.739v2.16c-0.672,1.728-1.488,3.408-2.544,5.04l-2.928-0.816c0.72-0.96,1.344-2.063,1.824-3.216
		H85.086v4.464h13.057v3.024H85.086v4.08c2.256,0.097,4.944,0.145,8.065,0.145c5.184,0,9.024-0.096,11.617-0.192l-0.576,3.457
		H93.919c-9.457,0-15.361-0.433-17.666-1.249c-2.064-0.768-3.889-2.063-5.473-3.983c-1.824,2.976-3.937,5.424-6.241,7.344
		l-2.736-2.399c4.128-3.265,7.249-7.585,9.361-13.01l3.024,1.152c-0.576,1.488-1.2,2.88-1.872,4.225
		c1.68,2.016,3.648,3.312,5.953,3.888c0.768,0.192,1.872,0.337,3.36,0.433V634.11H63.676z M81.534,652.975v-3.024h3.457v3.024
		h15.313v10.85h-2.352c2.064,2.447,3.984,5.136,5.712,8.064l-2.688,2.064c-0.672-1.249-1.393-2.448-2.064-3.553
		c-7.537,0.96-18.961,1.776-34.323,2.4l-0.96-3.312c6.721-0.192,12.673-0.384,17.906-0.576v-5.088H66.316v-10.85H81.534z
		 M81.534,656.095H69.724v4.608h11.809V656.095z M96.895,656.095H84.99v4.608h11.905V656.095z M95.455,665.264l1.968-1.439H84.99
		v4.944c4.8-0.288,8.929-0.576,12.337-0.864L95.455,665.264z"/>
	<path d="M135.535,668.384c1.728-3.072,3.264-6.769,4.608-11.185l3.312,0.912c-1.248,3.84-2.736,7.249-4.512,10.272h13.441v3.408
		H109.66v-3.408H135.535z M150.944,631.998v3.312H111.34v-3.312H150.944z M146.047,640.062v15.506h-29.858v-15.506H146.047z
		 M125.694,666.657l-2.928,1.296c-1.249-3.648-2.641-6.816-4.177-9.505l3.024-1.008C123.149,660.32,124.541,663.392,125.694,666.657
		z M142.687,643.279h-23.138v9.072h23.138V643.279z"/>
</g>
<g>
	<path d="M156.83,649.761v-5.513h3.328v-1.353c0-6.188,3.432-9.256,9.048-9.256c1.976,0,3.588,0.364,4.888,1.04l-1.404,5.2
		c-1.144-0.468-2.184-0.729-3.12-0.729c-1.976,0-2.964,1.093-2.964,3.276v1.82h5.512v5.513h-5.512v20.696h-6.448v-20.696H156.83z"/>
	<path d="M174.739,657.353c0-3.9,1.196-7.124,3.588-9.672c2.392-2.549,5.616-3.849,9.724-3.849c4.108,0,7.333,1.3,9.725,3.849
		c2.392,2.548,3.588,5.771,3.588,9.672s-1.196,7.176-3.588,9.725c-2.392,2.548-5.616,3.796-9.725,3.796
		c-4.108,0-7.332-1.248-9.724-3.796C175.935,664.529,174.739,661.253,174.739,657.353z M181.499,657.353
		c0,2.236,0.572,4.16,1.768,5.721c1.196,1.508,2.756,2.287,4.784,2.287c2.028,0,3.588-0.779,4.784-2.287
		c1.196-1.561,1.769-3.484,1.769-5.721s-0.572-4.16-1.769-5.668c-1.196-1.561-2.756-2.34-4.784-2.34
		c-2.028,0-3.588,0.779-4.784,2.34C182.071,653.193,181.499,655.117,181.499,657.353z"/>
	<path d="M228.913,670.458h-6.448v-4.212c-2.132,3.068-4.836,4.628-8.112,4.628c-4.836,0-8.061-2.756-8.061-7.904v-18.721h6.448
		v16.797c0,2.86,1.248,4.315,3.744,4.315c3.328,0,5.98-4.056,5.98-10.66v-10.452h6.448V670.458z"/>
</g>
<polygon fill="#FFFFFF" stroke="#000000" stroke-width="5" stroke-linecap="round" stroke-linejoin="round" stroke-miterlimit="10" points="
	1937,565.5 1599,457.5 1599,258.5 1937,366.5 "/>
<polygon fill="#FFFFFF" stroke="#000000" stroke-width="5" stroke-linecap="round" stroke-linejoin="round" stroke-miterlimit="10" points="
	1937,565.5 2275,457.5 2275,258.5 1937,366.5 "/>
<polygon fill="#FFFFFF" stroke="#000000" stroke-width="5" stroke-linecap="round" stroke-linejoin="round" stroke-miterlimit="10" points="
	1599.5,258.5 1937.5,366.5 2275,258.5 1937.5,139.121 "/>
<circle cx="1937.5" cy="139.121" r="143.652"/>
<text transform="matrix(1 0 0 1 1598.4999 542)"><tspan x="0" y="0" font-family="'PingFang-TC-Regular-83pv-RKSJ-H'" font-size="48">台灣</tspan><tspan x="0" y="58" font-family="'PingFang-TC-Regular-83pv-RKSJ-H'" font-size="48">後資本</tspan><tspan x="0" y="116" font-family="'PingFang-TC-Regular-83pv-RKSJ-H'" font-size="48">皮蛋豆</tspan></text>
<text transform="matrix(1 0 0 1 1742.1665 659.8812)" font-family="'Apercu-Bold'" font-size="52">fou</text>
</svg>
